<?xml version="1.0" encoding="UTF-8"?><svg id="a" xmlns="http://www.w3.org/2000/svg" viewBox="0 0 256 256"><g id="b"><path d="m232,256H0V24C0,10.75,10.75,0,24,0h208c13.25,0,24,10.75,24,24v208c0,13.25-10.75,24-24,24Z" style="fill:#e4e4e4;"/></g><g id="c"><path d="m11.46,136.02h47.74c11.22,0,19.99,1.94,26.31,5.81,7.85,4.79,11.78,12.48,11.78,23.07,0,13.55-6.33,22.26-18.97,26.13,10.1,2.85,15.45,11.41,16.06,25.67s2.5,23.33,5.66,27.19h-24.17c-2.04-1.53-3.37-3.6-3.98-6.2-.61-2.6-.92-5.79-.92-9.56v-5.51c0-8.26-1.71-14-5.12-17.21-3.42-3.21-9.41-4.82-17.98-4.82h-12.7v43.3H11.46v-107.87h0Zm47.58,45.75c4.49,0,8.01-1.07,10.56-3.21,2.55-2.14,3.83-5.41,3.83-9.79,0-4.79-1.68-8.11-5.05-9.95-2.55-1.43-6.43-2.14-11.63-2.14h-21.57v25.09h23.87,0Z"/><path d="m114.28,136.02h37.79c17.24,0,30.6,4.38,40.09,13.14,9.89,9.17,14.84,22.26,14.84,39.27,0,14.46-3.32,26.48-9.94,36.06-7.34,10.59-17.9,16.81-31.67,18.64-2.04.31-4.62.51-7.73.61s-6.1.15-8.95.15h-34.42v-107.87h-.01Zm40.09,87.06c10.1,0,17.44-3,22.03-9,4.18-5.39,6.27-13.28,6.27-23.66s-1.94-18.06-5.81-23.66c-4.49-6.51-11.68-9.77-21.57-9.77h-16.98v66.1h16.06,0Z"/></g><polyline id="d" points="0 94 56 94 76 66 102 108 137 35 161 83 256 83" style="fill:none; stroke:#000; stroke-miterlimit:10; stroke-width:20px;"/></svg>